<svg xmlns="http://www.w3.org/2000/svg" xmlns:xlink="http://www.w3.org/1999/xlink" viewBox="0,0,256,256" width="48px" height="48px" fill-rule="nonzero"><g fill="#99a1b7" fill-rule="nonzero" stroke="none" stroke-width="1" stroke-linecap="butt" stroke-linejoin="miter" stroke-miterlimit="10" stroke-dasharray="" stroke-dashoffset="0" font-family="none" font-weight="none" font-size="none" text-anchor="none" style="mix-blend-mode: normal"><g transform="scale(5.33333,5.33333)"><path d="M11.5,6c-3.01977,0 -5.5,2.48023 -5.5,5.5v25c0,3.01977 2.48023,5.5 5.5,5.5h25c3.01977,0 5.5,-2.48023 5.5,-5.5v-25c0,-3.01977 -2.48023,-5.5 -5.5,-5.5zM11.5,9h25c1.39823,0 2.5,1.10177 2.5,2.5v25c0,1.39823 -1.10177,2.5 -2.5,2.5h-25c-1.39823,0 -2.5,-1.10177 -2.5,-2.5v-25c0,-1.39823 1.10177,-2.5 2.5,-2.5zM34.4707,11.98633c-0.05424,0.00162 -0.10836,0.00619 -0.16211,0.01367h-6.80859c-0.54095,-0.00765 -1.04412,0.27656 -1.31683,0.74381c-0.27271,0.46725 -0.27271,1.04514 0,1.51238c0.27271,0.46725 0.77588,0.75146 1.31683,0.74381h3.37891l-15.87891,15.87891v-3.37891c0.00765,-0.54095 -0.27656,-1.04412 -0.74381,-1.31683c-0.46725,-0.27271 -1.04514,-0.27271 -1.51238,0c-0.46725,0.27271 -0.75146,0.77588 -0.74381,1.31683v6.81055c-0.06364,0.46504 0.09405,0.93306 0.42614,1.26477c0.33209,0.33171 0.80029,0.48886 1.26526,0.42468h6.80859c0.54095,0.00765 1.04412,-0.27656 1.31683,-0.74381c0.27271,-0.46725 0.27271,-1.04514 0,-1.51238c-0.27271,-0.46725 -0.77588,-0.75146 -1.31683,-0.74381h-3.37891l15.87891,-15.87891v3.37891c-0.00765,0.54095 0.27656,1.04412 0.74381,1.31683c0.46725,0.27271 1.04514,0.27271 1.51238,0c0.46725,-0.27271 0.75146,-0.77588 0.74381,-1.31683v-6.81055c0.05983,-0.43681 -0.07551,-0.87782 -0.37007,-1.20587c-0.29456,-0.32804 -0.71852,-0.5099 -1.15922,-0.49726z"></path></g></g></svg>