<svg xmlns="http://www.w3.org/2000/svg" xmlns:xlink="http://www.w3.org/1999/xlink" viewBox="0,0,256,256" width="78px" height="78px" fill-rule="nonzero"><g fill="#78829d" fill-rule="nonzero" stroke="none" stroke-width="1" stroke-linecap="butt" stroke-linejoin="miter" stroke-miterlimit="10" stroke-dasharray="" stroke-dashoffset="0" font-family="none" font-weight="none" font-size="none" text-anchor="none" style="mix-blend-mode: normal"><g transform="scale(0.064,0.064)"><path d="M700,1350c0,71.792 58.208,130 130,130h281.201c56.367,187.319 228.389,325 433.799,325c250.859,0 455,-204.141 455,-455c0,-250.859 -204.141,-455 -455,-455c-205.41,0 -377.432,137.681 -433.799,325h-281.201c-71.792,0 -130,58.208 -130,130zM1545,1155c107.529,0 195,87.471 195,195c0,107.529 -87.471,195 -195,195c-107.529,0 -195,-87.471 -195,-195c0,-107.529 87.471,-195 195,-195z"></path><path d="M3170,1220h-780c-71.792,0 -130,58.208 -130,130c0,71.792 58.208,130 130,130h780c71.792,0 130,-58.208 130,-130c0,-71.792 -58.208,-130 -130,-130z"></path><path d="M3170,2520h-281.201c-56.367,-187.319 -228.389,-325 -433.799,-325c-250.859,0 -455,204.141 -455,455c0,250.859 204.141,455 455,455c205.41,0 377.432,-137.681 433.799,-325h281.201c71.792,0 130,-58.208 130,-130c0,-71.792 -58.208,-130 -130,-130zM2455,2845c-107.529,0 -195,-87.471 -195,-195c0,-107.529 87.471,-195 195,-195c107.529,0 195,87.471 195,195c0,107.529 -87.471,195 -195,195z"></path><path d="M830,2780h780c71.792,0 130,-58.208 130,-130c0,-71.792 -58.208,-130 -130,-130h-780c-71.792,0 -130,58.208 -130,130c0,71.792 58.208,130 130,130z"></path></g></g></svg>