<svg xmlns="http://www.w3.org/2000/svg" xmlns:xlink="http://www.w3.org/1999/xlink" viewBox="0,0,256,256" width="32px" height="32px" fill-rule="nonzero"><g fill="#fa5252" fill-rule="nonzero" stroke="none" stroke-width="1" stroke-linecap="butt" stroke-linejoin="miter" stroke-miterlimit="10" stroke-dasharray="" stroke-dashoffset="0" font-family="none" font-weight="none" font-size="none" text-anchor="none" style="mix-blend-mode: normal"><g transform="scale(8,8)"><path d="M9.5,5c-4.13672,0 -7.5,3.40234 -7.5,7.5c0,1.42969 0.64844,2.66797 1.25,3.5625c0.60156,0.89453 1.21875,1.46875 1.21875,1.46875l10.8125,10.84375l0.71875,0.71875l0.71875,-0.71875l10.8125,-10.84375c0,0 2.46875,-2.17578 2.46875,-5.03125c0,-4.09766 -3.36328,-7.5 -7.5,-7.5c-3.43359,0 -5.64453,2.06641 -6.5,2.9375c-0.85547,-0.87109 -3.06641,-2.9375 -6.5,-2.9375zM9.5,7c2.98828,0 5.75,2.90625 5.75,2.90625l0.75,0.84375l0.75,-0.84375c0,0 2.76172,-2.90625 5.75,-2.90625c3.04297,0 5.5,2.49609 5.5,5.5c0,1.54297 -1.875,3.625 -1.875,3.625l-10.125,10.125l-10.125,-10.125c0,0 -0.48437,-0.46484 -0.96875,-1.1875c-0.48437,-0.72266 -0.90625,-1.66406 -0.90625,-2.4375c0,-3.00391 2.45703,-5.5 5.5,-5.5z"></path></g></g></svg>