<svg xmlns="http://www.w3.org/2000/svg" xmlns:xlink="http://www.w3.org/1999/xlink" viewBox="0,0,256,256" width="25px" height="25px" fill-rule="nonzero"><g fill="#99a1b7" fill-rule="nonzero" stroke="none" stroke-width="1" stroke-linecap="butt" stroke-linejoin="miter" stroke-miterlimit="10" stroke-dasharray="" stroke-dashoffset="0" font-family="none" font-weight="none" font-size="none" text-anchor="none" style="mix-blend-mode: normal"><g transform="scale(5.12,5.12)"><path d="M25,9c-8.822,0 -16,7.178 -16,16c0,5.186 2.49113,9.7918 6.32813,12.7168l0.62109,-0.7832c-3.606,-2.742 -5.94922,-7.06459 -5.94922,-11.93359c0,-8.271 6.729,-15 15,-15c2.351,0 4.56778,0.55934 6.55078,1.52734l0.82031,-0.71289c-2.209,-1.152 -4.71209,-1.81445 -7.37109,-1.81445zM36,9l-16.59961,14.40039h4.85742l-5.6582,7.19922h3.63281l-8.23242,10.40039l16.59961,-14.40039h-4.85742l5.6582,-7.19922h-3.63281zM34.67188,12.2832l-0.62109,0.7832c3.606,2.742 5.94922,7.06459 5.94922,11.93359c0,8.271 -6.729,15 -15,15c-2.351,0 -4.56778,-0.55934 -6.55078,-1.52734l-0.82031,0.71289c2.209,1.152 4.71209,1.81445 7.37109,1.81445c8.822,0 16,-7.178 16,-16c0,-5.186 -2.49112,-9.7918 -6.32812,-12.7168z"></path></g></g></svg>