<svg xmlns="http://www.w3.org/2000/svg" xmlns:xlink="http://www.w3.org/1999/xlink" viewBox="0,0,256,256" width="25px" height="25px" fill-rule="nonzero"><g fill="#17c653" fill-rule="nonzero" stroke="none" stroke-width="1" stroke-linecap="butt" stroke-linejoin="miter" stroke-miterlimit="10" stroke-dasharray="" stroke-dashoffset="0" font-family="none" font-weight="none" font-size="none" text-anchor="none" style="mix-blend-mode: normal"><g transform="scale(10.24,10.24)"><path d="M10.5,2h-7c-0.82843,0 -1.5,0.67157 -1.5,1.5v7c0,0.82843 0.67157,1.5 1.5,1.5h7c0.82843,0 1.5,-0.67157 1.5,-1.5v-7c0,-0.82843 -0.67157,-1.5 -1.5,-1.5zM11,10.5c0,0.27614 -0.22386,0.5 -0.5,0.5h-7c-0.27614,0 -0.5,-0.22386 -0.5,-0.5v-7c0,-0.27614 0.22386,-0.5 0.5,-0.5h7c0.27614,0 0.5,0.22386 0.5,0.5zM21.5,2h-7c-0.82843,0 -1.5,0.67157 -1.5,1.5v7c0,0.82843 0.67157,1.5 1.5,1.5h7c0.82843,0 1.5,-0.67157 1.5,-1.5v-7c0,-0.82843 -0.67157,-1.5 -1.5,-1.5zM22,10.5c0,0.27614 -0.22386,0.5 -0.5,0.5h-7c-0.27614,0 -0.5,-0.22386 -0.5,-0.5v-7c0,-0.27614 0.22386,-0.5 0.5,-0.5h7c0.27614,0 0.5,0.22386 0.5,0.5zM10.5,13h-7c-0.82843,0 -1.5,0.67157 -1.5,1.5v7c0,0.82843 0.67157,1.5 1.5,1.5h7c0.82843,0 1.5,-0.67157 1.5,-1.5v-7c0,-0.82843 -0.67157,-1.5 -1.5,-1.5zM11,21.5c0,0.27614 -0.22386,0.5 -0.5,0.5h-7c-0.27614,0 -0.5,-0.22386 -0.5,-0.5v-7c0,-0.27614 0.22386,-0.5 0.5,-0.5h7c0.27614,0 0.5,0.22386 0.5,0.5zM21.5,13h-7c-0.82843,0 -1.5,0.67157 -1.5,1.5v7c0,0.82843 0.67157,1.5 1.5,1.5h7c0.82843,0 1.5,-0.67157 1.5,-1.5v-7c0,-0.82843 -0.67157,-1.5 -1.5,-1.5zM22,21.5c0,0.27614 -0.22386,0.5 -0.5,0.5h-7c-0.27614,0 -0.5,-0.22386 -0.5,-0.5v-7c0,-0.27614 0.22386,-0.5 0.5,-0.5h7c0.27614,0 0.5,0.22386 0.5,0.5z"></path></g></g></svg>