<svg xmlns="http://www.w3.org/2000/svg" xmlns:xlink="http://www.w3.org/1999/xlink" viewBox="0,0,256,256" width="24px" height="24px" fill-rule="evenodd"><g fill="#1b84ff" fill-rule="evenodd" stroke="none" stroke-width="1" stroke-linecap="butt" stroke-linejoin="miter" stroke-miterlimit="10" stroke-dasharray="" stroke-dashoffset="0" font-family="none" font-weight="none" font-size="none" text-anchor="none" style="mix-blend-mode: normal"><g transform="scale(10.66667,10.66667)"><path d="M5,1.9668c-2.071,0 -3.75,1.679 -3.75,3.75v9c0,0.995 0.39466,1.94934 1.09766,2.65234c0.704,0.703 1.65734,1.09766 2.65234,1.09766c0.138,0 0.25,0.112 0.25,0.25v2.06641c0,0.461 0.25416,0.88356 0.66016,1.10156c0.407,0.217 0.9002,0.1935 1.2832,-0.0625l4.71875,-3.14453c0.206,-0.137 0.44736,-0.21094 0.69336,-0.21094h6.39453c0.995,0 1.94834,-0.39466 2.65234,-1.09766c0.703,-0.703 1.09766,-1.65734 1.09766,-2.65234v-9c0,-2.071 -1.679,-3.75 -3.75,-3.75zM5,3.4668h14c1.243,0 2.25,1.007 2.25,2.25v9c0,0.597 -0.2362,1.1698 -0.6582,1.5918c-0.422,0.422 -0.9948,0.6582 -1.5918,0.6582h-6.39453c-0.543,0 -1.07339,0.16189 -1.52539,0.46289l-4.33008,2.88672v-1.59961c0,-0.966 -0.783,-1.75 -1.75,-1.75c-0.597,0 -1.1698,-0.2362 -1.5918,-0.6582c-0.422,-0.422 -0.6582,-0.9948 -0.6582,-1.5918v-9c0,-1.243 1.007,-2.25 2.25,-2.25zM6,5.9668c-0.414,0 -0.75,0.336 -0.75,0.75c0,0.414 0.336,0.75 0.75,0.75h7c0.414,0 0.75,-0.336 0.75,-0.75c0,-0.414 -0.336,-0.75 -0.75,-0.75zM6,9.4668c-0.414,0 -0.75,0.336 -0.75,0.75c0,0.414 0.336,0.75 0.75,0.75h6c0.414,0 0.75,-0.336 0.75,-0.75c0,-0.414 -0.336,-0.75 -0.75,-0.75zM15,9.4668c-0.414,0 -0.75,0.336 -0.75,0.75c0,0.414 0.336,0.75 0.75,0.75h3c0.414,0 0.75,-0.336 0.75,-0.75c0,-0.414 -0.336,-0.75 -0.75,-0.75zM6,12.9668c-0.414,0 -0.75,0.336 -0.75,0.75c0,0.414 0.336,0.75 0.75,0.75h2c0.414,0 0.75,-0.336 0.75,-0.75c0,-0.414 -0.336,-0.75 -0.75,-0.75zM11,12.9668c-0.414,0 -0.75,0.336 -0.75,0.75c0,0.414 0.336,0.75 0.75,0.75h7c0.414,0 0.75,-0.336 0.75,-0.75c0,-0.414 -0.336,-0.75 -0.75,-0.75z"></path></g></g></svg>