<svg xmlns="http://www.w3.org/2000/svg" xmlns:xlink="http://www.w3.org/1999/xlink" viewBox="0,0,256,256" width="64px" height="64px" fill-rule="nonzero"><g fill="#78829d" fill-rule="nonzero" stroke="none" stroke-width="1" stroke-linecap="butt" stroke-linejoin="miter" stroke-miterlimit="10" stroke-dasharray="" stroke-dashoffset="0" font-family="none" font-weight="none" font-size="none" text-anchor="none" style="mix-blend-mode: normal"><g transform="scale(0.5,0.5)"><path d="M237.00586,67.08594c-43.53338,0.00025 -87.06748,16.57044 -120.20898,49.71094c-66.283,66.283 -66.283,174.13496 0,240.41796c33.14099,33.141 76.67498,49.71094 120.20898,49.71094c40.41433,0 80.82333,-14.29143 112.92383,-42.85351l77.99414,77.99414c1.953,1.952 4.51031,2.92773 7.07031,2.92773c2.56,0 5.11827,-0.97473 7.07227,-2.92773c3.905,-3.906 3.905,-10.23758 0,-14.14258l-77.99414,-77.9961c59.32849,-66.67801 57.05003,-169.22244 -6.85743,-233.13085c-33.142,-33.1415 -76.67561,-49.71119 -120.20898,-49.71094zM237.00586,87.07617c38.412,0 76.82245,14.62028 106.06445,43.86328c58.47845,58.47945 58.48397,153.62883 0.01563,212.11524c-0.00527,0.00524 -0.01037,0.01037 -0.01563,0.01562c-0.00526,0.00527 -0.01037,0.01035 -0.01562,0.01563c-58.48625,58.4703 -153.63614,58.46643 -212.11524,-0.01367c-58.485,-58.486 -58.485,-153.64782 0,-212.13282c29.242,-29.243 67.65441,-43.86328 106.06641,-43.86328z"></path></g></g></svg>